inDegrees=yes
name=ik_S56_A11_T02
DataType=double
version=3
OpenSimVersion=4.3-2021-08-27-4bc7ad9
endheader
time	pelvis_tilt	pelvis_list	pelvis_rotation	pelvis_tx	pelvis_ty	pelvis_tz	hip_flexion_r	hip_adduction_r	hip_rotation_r	knee_angle_r	knee_angle_r_beta	ankle_angle_r	subtalar_angle_r	mtp_angle_r	hip_flexion_l	hip_adduction_l	hip_rotation_l	knee_angle_l	knee_angle_l_beta	ankle_angle_l	subtalar_angle_l	mtp_angle_l	lumbar_extension	lumbar_bending	lumbar_rotation	arm_flex_r	arm_add_r	arm_rot_r	elbow_flex_r	pro_sup_r	wrist_flex_r	wrist_dev_r	arm_flex_l	arm_add_l	arm_rot_l	elbow_flex_l	pro_sup_l	wrist_flex_l	wrist_dev_l
0	0	0	0	0	0.9399999999999999	0	0	0	0	0	0	0	0	0	0	0	0	0	0	0	0	0	0	0	0	0	0	0	0	89.99999999963507	0	0	0	0	0	0	89.99999999869995	0	0
0.02	-0.8621924043214301	-0.6437216111237472	33.44748930485633	0	0.9399999999999999	0	1.35447051450093	-0.6396937753766216	-0.4545599255777785	2.113737061236963	0.03689167124001402	0	0	0	1.35447051450093	-0.6396937753766216	-0.4545599255777785	2.113737061236963	0.03689167124001402	0	0	0	-0.9593146764058598	-0.03149780572484781	15.71128076849247	3.421730563567131	-4.677365431068171	3.554695750272559	7.08790634975935	120.6480687935305	0	0	1.811307070508744	-4.573564474872339	3.374565652555478	9.29513006498355	105.8546895961486	0	0
0.04	-0.8687808602643624	-0.6406690136731885	33.85323499503993	0	0.9399999999999999	0	3.531139672307092	-1.577666931330723	-1.25047820364273	3.445666884774562	0.06013823206625218	0	0	0	3.531139672307092	-1.577666931330723	-1.25047820364273	3.445666884774562	0.06013823206625218	0	0	0	-0.9735784392777459	-0.01357692400511514	15.33429805081393	3.44152676990028	-4.684052517835069	3.52638992406834	7.111348000128626	120.6606293553986	0	0	1.825328321025384	-4.555952712244969	3.402222207678677	9.293125008222811	105.8132550974027	0	0
0.06	-0.879307924580475	-0.6283822132474475	34.33709979590957	0	0.9399999999999999	0	6.746721477226163	-2.971959823644995	-2.366531512412907	6.612524300192246	0.1154103209064886	0	0	0	6.746721477226163	-2.971959823644995	-2.366531512412907	6.612524300192246	0.1154103209064886	0	0	0	-0.9827127842391401	-0.01645767372262958	14.86714201517807	3.453193308213423	-4.684454939207344	3.523360232042779	7.054699389819699	120.6424772067811	0	0	1.829409630090205	-4.585259794835269	3.52471696727715	9.302343638688839	105.6822543062795	0	0
0.08	-0.8954256355359255	-0.6277072067322401	34.40594056465514	0	0.9399999999999999	0	7.108064344895284	-3.102681928243358	-2.487247790869747	6.881011905563835	0.1200963136210181	0	0	0	7.108064344895284	-3.102681928243358	-2.487247790869747	6.881011905563835	0.1200963136210181	0	0	0	-0.9961019310192603	-0.008448067263721746	14.81869688666944	3.491328892697859	-4.683030252555007	3.520644746181671	7.004390427510716	120.6712407635538	0	0	1.846038071502879	-4.599481163163055	3.577493246917226	9.327221297803332	105.8652127686273	0	0
0.1	-0.9156475751071549	-0.6270233865809758	34.46669000686986	0	0.9399999999999999	0	7.500114689490615	-3.252537888238477	-2.617827393816854	7.222940973268691	0.1260641016607424	0	0	0	7.500114689490615	-3.252537888238477	-2.617827393816854	7.222940973268691	0.1260641016607424	0	0	0	-1.01266884474407	0.0008755834179149269	14.7669062747642	3.507162310315675	-4.704857702185694	3.550812497144345	7.124029820541998	120.5590399373202	0	0	1.855713096251954	-4.630830560188739	3.688939722647472	9.502067075731729	105.8993710485344	0	0
0.12	-0.9240240080746147	-0.6182518373712391	34.4989468538326	0	0.9399999999999999	0	7.771231866886096	-3.34431657419218	-2.706662466173412	7.411349262757915	0.12935244665038	0	0	0	7.771231866886096	-3.34431657419218	-2.706662466173412	7.411349262757915	0.12935244665038	0	0	0	-1.015197143217678	0.01187126567783151	14.7334891645712	3.539021686759285	-4.697589620883179	3.526586869550228	6.950158633100039	120.7006950320275	0	0	1.87043521169617	-4.624059881378131	3.751941152590783	9.378136574656759	106.1459529744042	0	0
0.14	-0.9463233646507697	-0.6155568058616039	34.54000148239221	0	0.9399999999999999	0	8.077519023190105	-3.452768077517448	-2.806895342421102	7.652855947101485	0.1335675334577499	0	0	0	8.077519023190105	-3.452768077517448	-2.806895342421102	7.652855947101485	0.1335675334577499	0	0	0	-1.032511631452995	0.02511195753579886	14.67686114215367	3.579225899112374	-4.707237759309277	3.574642228403462	6.90849842115243	120.6004465731292	0	0	1.902471315294067	-4.642976227036946	3.828202367942625	9.40536137545228	106.112688040031	0	0
0.16	-0.9451986390571463	-0.6194285222632032	34.52806162593218	0	0.9399999999999999	0	8.092853717915911	-3.460184620948706	-2.812088709058842	7.673989469729793	0.1339363830101586	0	0	0	8.092853717915911	-3.460184620948706	-2.812088709058842	7.673989469729793	0.1339363830101586	0	0	0	-1.033588815330974	0.02071188734943369	14.69778461293606	3.582203163063161	-4.659404082778365	3.534376450906745	6.845800318539812	120.5170783897678	0	0	1.899457127533005	-4.699312549101276	3.925792046623927	9.407015390908025	106.3340614518428	0	0
0.18	-0.9547529899506302	-0.6114612280915089	34.49639766491647	0	0.9399999999999999	0	8.097962698282927	-3.46264101607319	-2.81381497480891	7.681034484839349	0.1340593417196731	0	0	0	8.097962698282927	-3.46264101607319	-2.81381497480891	7.681034484839349	0.1340593417196731	0	0	0	-1.036959065814437	0.03270285053705616	14.69673603611926	3.602550248202216	-4.661021359385942	3.575957663927464	6.814509117029099	120.501984441416	0	0	1.900419416090775	-4.70968049563529	4.00893510744923	9.406691936017875	106.4208501984616	0	0
